<svg xmlns="http://www.w3.org/2000/svg" viewBox="0 0 64 64" fill="none">
  <g fill="#155d3a">
    <path d="M4.5 27.4c-.8-4.5 2.8-8.1 7.5-8.4.4-5.1 5.5-8.4 10.2-6.1C24.5 8.7 29 6.8 33 9.4c4.1-2.8 9.4-.9 11.1 3.6 5-2 9.9 1.1 10.1 6.1 4.6.6 7.7 4.1 6.7 8.4-1 4.1-5.8 5.8-9.4 3.5-3.2 3.1-8.7 3.2-12 .4-4.3 2.5-10.5 2.5-14.8-.1-3.3 2.9-8.7 2.7-11.9-.3-3.5 2.2-7.5.5-8.3-3.6Z"/>
    <path d="M27.1 28.2c1.2 6.9.4 13.7-2.4 19.4h14.6c-3-5.8-3.9-12.5-2.5-19.4-2.9 1.2-6.7 1.2-9.7 0Z"/>
  </g>
  <g stroke="#155d3a" stroke-linecap="round" stroke-linejoin="round">
    <path d="M31.7 34.2c-.2-5.2-2.8-9.5-7.9-13.3m8.5 13.3c.5-7.4 4.4-12.3 10.3-16m-10.4 9.1c-.2-5.1.3-9.3 1.6-13.1M29 30.1c-4.3-3.9-8.9-5.7-14.2-5.8m20.1 5.4c4.4-3.5 8.9-5.1 14.2-5" stroke-width="4.4"/>
    <path d="M32 45.1v14.1m-3.6-13.5c-1.6 5.9-4.9 10.5-9.9 13.9m17.1-13.9c1.6 5.9 4.9 10.5 9.9 13.9M26 45.4c-3.5 4.6-8 7.7-13.6 9.3m25.6-9.3c3.5 4.6 8 7.7 13.6 9.3M24.8 46.7c-5.3 2.1-10.4 2.9-15.5 2.4m30-2.4c5.3 2.1 10.4 2.9 15.5 2.4" stroke-width="4.2"/>
  </g>
  <circle cx="20" cy="20.5" r="3.15" fill="#b83b3e"/>
  <circle cx="33" cy="14.4" r="3.15" fill="#e6b325"/>
  <circle cx="45.2" cy="20.4" r="3.15" fill="#75a96f"/>
</svg>
